<svg xmlns="http://www.w3.org/2000/svg" width="800" height="800" viewBox="0 0 800 800">
  <defs>
    <linearGradient id="bg" x1="0" y1="0" x2="1" y2="1">
      <stop offset="0" stop-color="#75544a"/>
      <stop offset="1" stop-color="#5e4039"/>
    </linearGradient>
    <linearGradient id="shine" x1="0" y1="0" x2="0" y2="1">
      <stop offset="0" stop-color="rgba(255,255,255,0.35)"/>
      <stop offset="1" stop-color="rgba(255,255,255,0)"/>
    </linearGradient>
  </defs>
  <rect width="800" height="800" rx="64" fill="url(#bg)"/>
  <path d="M70 120 C220 40, 460 40, 730 150" fill="none" stroke="rgba(255,255,255,0.18)" stroke-width="22" stroke-linecap="round"/>
  <path d="M0 0 H800 V260 C560 330, 300 330, 0 250 Z" fill="rgba(255,255,255,0.08)"/>
  <circle cx="400" cy="330" r="120" fill="rgba(255,255,255,0.92)"/>
  <path d="M170 720 C210 560, 310 500, 400 500 C490 500, 590 560, 630 720" fill="rgba(255,255,255,0.92)"/>
  <path d="M260 340 C290 410, 350 445, 400 445 C450 445, 510 410, 540 340" fill="none" stroke="rgba(94,64,57,0.25)" stroke-width="18" stroke-linecap="round"/>
  <path d="M220 520 C280 470, 340 450, 400 450 C460 450, 520 470, 580 520" fill="rgba(255,255,255,0.92)"/>
  <path d="M120 640 C210 560, 300 540, 400 540 C500 540, 590 560, 680 640" fill="rgba(255,255,255,0.18)"/>
  <rect x="38" y="38" width="724" height="724" rx="56" fill="url(#shine)"/>
</svg>
